<?xml version="1.0" standalone="no"?>
<!DOCTYPE svg PUBLIC "-//W3C//DTD SVG 20010904//EN"
 "http://www.w3.org/TR/2001/REC-SVG-20010904/DTD/svg10.dtd">
<svg version="1.0" xmlns="http://www.w3.org/2000/svg"
 width="512.000000pt" height="512.000000pt" viewBox="0 0 512.000000 512.000000"
 preserveAspectRatio="xMidYMid meet">
<metadata>
Created by potrace 1.14, written by Peter Selinger 2001-2017
</metadata>
<g transform="translate(0.000000,512.000000) scale(0.100000,-0.100000)"
fill="#000000" stroke="none">
<path d="M1400 5101 c-98 -32 -172 -74 -234 -132 -76 -71 -123 -148 -153 -251
-86 -297 67 -608 350 -708 50 -18 52 -20 49 -52 -6 -63 19 -248 44 -335 14
-49 46 -128 71 -178 44 -89 127 -215 141 -215 4 0 7 -27 7 -60 0 -44 -3 -60
-13 -60 -29 0 -184 -80 -244 -126 -221 -168 -300 -259 -392 -448 -88 -182
-132 -367 -143 -596 -11 -258 64 -457 209 -555 46 -30 48 -34 31 -44 -30 -15
-127 -139 -157 -199 -80 -159 -87 -368 -17 -553 22 -58 91 -179 121 -214 88
-100 155 -150 273 -205 196 -91 415 -94 593 -9 100 48 221 170 269 270 39 82
65 187 65 265 0 78 36 170 84 219 49 49 111 70 206 70 95 0 157 -21 206 -70
48 -49 84 -141 84 -219 0 -78 26 -183 65 -265 47 -98 169 -222 267 -269 177
-86 399 -83 595 8 149 69 247 154 323 280 112 185 147 382 101 562 -32 123
-86 215 -182 309 l-37 35 44 28 c144 91 222 298 211 556 -16 359 -131 661
-334 876 -46 48 -228 194 -242 194 -6 0 -11 4 -11 9 0 9 -172 91 -192 91 -10
0 -14 16 -14 60 -1 33 3 60 7 60 15 0 96 124 142 215 25 50 57 129 71 178 25
87 50 272 44 335 -3 31 0 34 47 51 136 49 246 145 308 268 48 94 67 174 67
276 0 265 -159 474 -421 551 -62 19 -213 21 -291 5 -99 -20 -195 -75 -274
-155 l-72 -73 -101 34 c-147 50 -254 68 -411 68 -157 0 -264 -18 -411 -68
l-101 -34 -72 73 c-79 80 -175 135 -274 155 -82 17 -238 13 -302 -8z"/>
</g>
</svg>
